solid kernel_2D
   facet normal 0.000000e+000 -5.493874e-002 9.984897e-001
      outer loop
         vertex 2.500000e-003 4.504376e-019 2.392377e-003
         vertex -2.500000e-003 4.504376e-019 2.392377e-003
         vertex -2.500000e-003 -9.221931e-005 2.384734e-003
      endloop
   endfacet
   facet normal 0.000000e+000 -1.098775e-001 9.939451e-001
      outer loop
         vertex 2.500000e-003 4.504376e-019 2.392377e-003
         vertex -2.500000e-003 -9.221931e-005 2.384734e-003
         vertex 2.500000e-003 -9.221931e-005 2.384734e-003
      endloop
   endfacet
   facet normal 0.000000e+000 -2.165101e-001 9.762804e-001
      outer loop
         vertex 2.500000e-003 -9.221931e-005 2.384734e-003
         vertex -2.500000e-003 -9.221931e-005 2.384734e-003
         vertex -2.500000e-003 -1.832667e-004 2.361874e-003
      endloop
   endfacet
   facet normal 0.000000e+000 -2.682362e-001 9.633532e-001
      outer loop
         vertex 2.500000e-003 -9.221931e-005 2.384734e-003
         vertex -2.500000e-003 -1.832667e-004 2.361874e-003
         vertex 2.500000e-003 -1.832667e-004 2.361874e-003
      endloop
   endfacet
   facet normal 0.000000e+000 -3.668041e-001 9.302981e-001
      outer loop
         vertex 2.500000e-003 -1.832667e-004 2.361874e-003
         vertex -2.500000e-003 -1.832667e-004 2.361874e-003
         vertex -2.500000e-003 -2.759354e-004 2.322374e-003
      endloop
   endfacet
   facet normal 0.000000e+000 -4.137241e-001 9.104023e-001
      outer loop
         vertex 2.500000e-003 -1.832667e-004 2.361874e-003
         vertex -2.500000e-003 -2.759354e-004 2.322374e-003
         vertex 2.500000e-003 -2.759354e-004 2.322374e-003
      endloop
   endfacet
   facet normal 0.000000e+000 -5.022018e-001 8.647504e-001
      outer loop
         vertex 2.500000e-003 -2.759354e-004 2.322374e-003
         vertex -2.500000e-003 -2.759354e-004 2.322374e-003
         vertex -2.500000e-003 -3.741907e-004 2.261710e-003
      endloop
   endfacet
   facet normal 0.000000e+000 -5.438550e-001 8.391792e-001
      outer loop
         vertex 2.500000e-003 -2.759354e-004 2.322374e-003
         vertex -2.500000e-003 -3.741907e-004 2.261710e-003
         vertex 2.500000e-003 -3.741907e-004 2.261710e-003
      endloop
   endfacet
   facet normal 0.000000e+000 -6.214908e-001 7.834215e-001
      outer loop
         vertex 2.500000e-003 -3.741907e-004 2.261710e-003
         vertex -2.500000e-003 -3.741907e-004 2.261710e-003
         vertex -2.500000e-003 -4.821476e-004 2.171285e-003
      endloop
   endfacet
   facet normal 0.000000e+000 -6.575806e-001 7.533842e-001
      outer loop
         vertex 2.500000e-003 -3.741907e-004 2.261710e-003
         vertex -2.500000e-003 -4.821476e-004 2.171285e-003
         vertex 2.500000e-003 -4.821476e-004 2.171285e-003
      endloop
   endfacet
   facet normal 0.000000e+000 -7.237336e-001 6.900795e-001
      outer loop
         vertex 2.500000e-003 -4.821476e-004 2.171285e-003
         vertex -2.500000e-003 -4.821476e-004 2.171285e-003
         vertex -2.500000e-003 -6.034950e-004 2.037198e-003
      endloop
   endfacet
   facet normal 0.000000e+000 -7.539317e-001 6.569529e-001
      outer loop
         vertex 2.500000e-003 -4.821476e-004 2.171285e-003
         vertex -2.500000e-003 -6.034950e-004 2.037198e-003
         vertex 2.500000e-003 -6.034950e-004 2.037198e-003
      endloop
   endfacet
   facet normal 0.000000e+000 -8.046374e-001 5.937665e-001
      outer loop
         vertex 2.500000e-003 -6.034950e-004 2.037198e-003
         vertex -2.500000e-003 -6.034950e-004 2.037198e-003
         vertex -2.500000e-003 -7.200978e-004 1.872023e-003
      endloop
   endfacet
   facet normal 0.000000e+000 -8.256827e-001 5.641348e-001
      outer loop
         vertex 2.500000e-003 -6.034950e-004 2.037198e-003
         vertex -2.500000e-003 -7.200978e-004 1.872023e-003
         vertex 2.500000e-003 -7.200978e-004 1.872023e-003
      endloop
   endfacet
   facet normal 0.000000e+000 -8.618224e-001 5.072101e-001
      outer loop
         vertex 2.500000e-003 -7.200978e-004 1.872023e-003
         vertex -2.500000e-003 -7.200978e-004 1.872023e-003
         vertex -2.500000e-003 -8.367556e-004 1.665385e-003
      endloop
   endfacet
   facet normal 0.000000e+000 -8.772119e-001 4.801034e-001
      outer loop
         vertex 2.500000e-003 -7.200978e-004 1.872023e-003
         vertex -2.500000e-003 -8.367556e-004 1.665385e-003
         vertex 2.500000e-003 -8.367556e-004 1.665385e-003
      endloop
   endfacet
   facet normal 0.000000e+000 -9.035730e-001 4.284340e-001
      outer loop
         vertex 2.500000e-003 -8.367556e-004 1.665385e-003
         vertex -2.500000e-003 -8.367556e-004 1.665385e-003
         vertex -2.500000e-003 -9.516491e-004 1.413091e-003
      endloop
   endfacet
   facet normal 0.000000e+000 -9.147663e-001 4.039836e-001
      outer loop
         vertex 2.500000e-003 -8.367556e-004 1.665385e-003
         vertex -2.500000e-003 -9.516491e-004 1.413091e-003
         vertex 2.500000e-003 -9.516491e-004 1.413091e-003
      endloop
   endfacet
   facet normal 0.000000e+000 -9.342273e-001 3.566781e-001
      outer loop
         vertex 2.500000e-003 -9.516491e-004 1.413091e-003
         vertex -2.500000e-003 -9.516491e-004 1.413091e-003
         vertex -2.500000e-003 -1.066780e-003 1.098499e-003
      endloop
   endfacet
   facet normal 0.000000e+000 -9.426179e-001 3.338734e-001
      outer loop
         vertex 2.500000e-003 -9.516491e-004 1.413091e-003
         vertex -2.500000e-003 -1.066780e-003 1.098499e-003
         vertex 2.500000e-003 -1.066780e-003 1.098499e-003
      endloop
   endfacet
   facet normal 0.000000e+000 -9.565899e-001 2.914372e-001
      outer loop
         vertex 2.500000e-003 -1.066780e-003 1.098499e-003
         vertex -2.500000e-003 -1.066780e-003 1.098499e-003
         vertex -2.500000e-003 -1.170425e-003 7.435965e-004
      endloop
   endfacet
   facet normal 0.000000e+000 -9.623368e-001 2.718599e-001
      outer loop
         vertex 2.500000e-003 -1.066780e-003 1.098499e-003
         vertex -2.500000e-003 -1.170425e-003 7.435965e-004
         vertex 2.500000e-003 -1.170425e-003 7.435965e-004
      endloop
   endfacet
   facet normal 0.000000e+000 -9.720067e-001 2.349531e-001
      outer loop
         vertex 2.500000e-003 -1.170425e-003 7.435965e-004
         vertex -2.500000e-003 -1.170425e-003 7.435965e-004
         vertex -2.500000e-003 -1.264755e-003 3.356189e-004
      endloop
   endfacet
   facet normal 0.000000e+000 -9.760271e-001 2.176490e-001
      outer loop
         vertex 2.500000e-003 -1.170425e-003 7.435965e-004
         vertex -2.500000e-003 -1.264755e-003 3.356189e-004
         vertex 2.500000e-003 -1.264755e-003 3.356189e-004
      endloop
   endfacet
   facet normal 0.000000e+000 -9.827412e-001 1.849858e-001
      outer loop
         vertex 2.500000e-003 -1.264755e-003 3.356189e-004
         vertex -2.500000e-003 -1.264755e-003 3.356189e-004
         vertex -2.500000e-003 -1.347608e-003 -1.267708e-004
      endloop
   endfacet
   facet normal 0.000000e+000 -9.855059e-001 1.696412e-001
      outer loop
         vertex 2.500000e-003 -1.264755e-003 3.356189e-004
         vertex -2.500000e-003 -1.347608e-003 -1.267708e-004
         vertex 2.500000e-003 -1.347608e-003 -1.267708e-004
      endloop
   endfacet
   facet normal 0.000000e+000 -9.900873e-001 1.404533e-001
      outer loop
         vertex 2.500000e-003 -1.347608e-003 -1.267708e-004
         vertex -2.500000e-003 -1.347608e-003 -1.267708e-004
         vertex -2.500000e-003 -1.416449e-003 -6.399318e-004
      endloop
   endfacet
   facet normal 0.000000e+000 -9.919516e-001 1.266173e-001
      outer loop
         vertex 2.500000e-003 -1.347608e-003 -1.267708e-004
         vertex -2.500000e-003 -1.416449e-003 -6.399318e-004
         vertex 2.500000e-003 -1.416449e-003 -6.399318e-004
      endloop
   endfacet
   facet normal 0.000000e+000 -9.950427e-001 9.944845e-002
      outer loop
         vertex 2.500000e-003 -1.416449e-003 -6.399318e-004
         vertex -2.500000e-003 -1.416449e-003 -6.399318e-004
         vertex -2.500000e-003 -1.468437e-003 -1.199380e-003
      endloop
   endfacet
   facet normal 0.000000e+000 -9.962850e-001 8.611735e-002
      outer loop
         vertex 2.500000e-003 -1.416449e-003 -6.399318e-004
         vertex -2.500000e-003 -1.468437e-003 -1.199380e-003
         vertex 2.500000e-003 -1.468437e-003 -1.199380e-003
      endloop
   endfacet
   facet normal 0.000000e+000 -9.982445e-001 5.922814e-002
      outer loop
         vertex 2.500000e-003 -1.468437e-003 -1.199380e-003
         vertex -2.500000e-003 -1.468437e-003 -1.199380e-003
         vertex -2.500000e-003 -1.499098e-003 -1.781947e-003
      endloop
   endfacet
   facet normal 0.000000e+000 -9.989566e-001 4.566966e-002
      outer loop
         vertex 2.500000e-003 -1.468437e-003 -1.199380e-003
         vertex -2.500000e-003 -1.499098e-003 -1.781947e-003
         vertex 2.500000e-003 -1.499098e-003 -1.781947e-003
      endloop
   endfacet
   facet normal 0.000000e+000 -9.996601e-001 2.607418e-002
      outer loop
         vertex 2.500000e-003 -1.499098e-003 -1.781947e-003
         vertex -2.500000e-003 -1.499098e-003 -1.781947e-003
         vertex -2.500000e-003 -1.504808e-003 -2.028699e-003
      endloop
   endfacet
   facet normal 0.000000e+000 -9.997991e-001 2.004191e-002
      outer loop
         vertex 2.500000e-003 -1.499098e-003 -1.781947e-003
         vertex -2.500000e-003 -1.504808e-003 -2.028699e-003
         vertex 2.500000e-003 -1.504808e-003 -2.028699e-003
      endloop
   endfacet
   facet normal 0.000000e+000 -9.999982e-001 1.945234e-003
      outer loop
         vertex 2.500000e-003 -1.504808e-003 -2.028699e-003
         vertex -2.500000e-003 -1.504808e-003 -2.028699e-003
         vertex -2.500000e-003 -1.503794e-003 -2.420469e-003
      endloop
   endfacet
   facet normal 0.000000e+000 -9.999488e-001 -1.012071e-002
      outer loop
         vertex 2.500000e-003 -1.504808e-003 -2.028699e-003
         vertex -2.500000e-003 -1.503794e-003 -2.420469e-003
         vertex 2.500000e-003 -1.503794e-003 -2.420469e-003
      endloop
   endfacet
   facet normal 0.000000e+000 -9.995664e-001 -2.944668e-002
      outer loop
         vertex 2.500000e-003 -1.503794e-003 -2.420469e-003
         vertex -2.500000e-003 -1.503794e-003 -2.420469e-003
         vertex -2.500000e-003 -1.490999e-003 -2.784188e-003
      endloop
   endfacet
   facet normal 0.000000e+000 -9.993260e-001 -3.670875e-002
      outer loop
         vertex 2.500000e-003 -1.503794e-003 -2.420469e-003
         vertex -2.500000e-003 -1.490999e-003 -2.784188e-003
         vertex 2.500000e-003 -1.490999e-003 -2.784188e-003
      endloop
   endfacet
   facet normal 0.000000e+000 -9.985006e-001 -5.474133e-002
      outer loop
         vertex 2.500000e-003 -1.490999e-003 -2.784188e-003
         vertex -2.500000e-003 -1.490999e-003 -2.784188e-003
         vertex -2.500000e-003 -1.466591e-003 -3.207613e-003
      endloop
   endfacet
   facet normal 0.000000e+000 -9.978520e-001 -6.550906e-002
      outer loop
         vertex 2.500000e-003 -1.490999e-003 -2.784188e-003
         vertex -2.500000e-003 -1.466591e-003 -3.207613e-003
         vertex 2.500000e-003 -1.466591e-003 -3.207613e-003
      endloop
   endfacet
   facet normal 0.000000e+000 -9.957005e-001 -9.263147e-002
      outer loop
         vertex 2.500000e-003 -1.466591e-003 -3.207613e-003
         vertex -2.500000e-003 -1.466591e-003 -3.207613e-003
         vertex -2.500000e-003 -1.427736e-003 -3.596036e-003
      endloop
   endfacet
   facet normal 0.000000e+000 -9.940445e-001 -1.089745e-001
      outer loop
         vertex 2.500000e-003 -1.466591e-003 -3.207613e-003
         vertex -2.500000e-003 -1.427736e-003 -3.596036e-003
         vertex 2.500000e-003 -1.427736e-003 -3.596036e-003
      endloop
   endfacet
   facet normal 0.000000e+000 -9.895676e-001 -1.440694e-001
      outer loop
         vertex 2.500000e-003 -1.427736e-003 -3.596036e-003
         vertex -2.500000e-003 -1.427736e-003 -3.596036e-003
         vertex -2.500000e-003 -1.375695e-003 -3.933862e-003
      endloop
   endfacet
   facet normal 0.000000e+000 -9.866574e-001 -1.628100e-001
      outer loop
         vertex 2.500000e-003 -1.427736e-003 -3.596036e-003
         vertex -2.500000e-003 -1.375695e-003 -3.933862e-003
         vertex 2.500000e-003 -1.375695e-003 -3.933862e-003
      endloop
   endfacet
   facet normal 0.000000e+000 -9.791669e-001 -2.030571e-001
      outer loop
         vertex 2.500000e-003 -1.375695e-003 -3.933862e-003
         vertex -2.500000e-003 -1.375695e-003 -3.933862e-003
         vertex -2.500000e-003 -1.310243e-003 -4.234883e-003
      endloop
   endfacet
   facet normal 0.000000e+000 -9.744647e-001 -2.245410e-001
      outer loop
         vertex 2.500000e-003 -1.375695e-003 -3.933862e-003
         vertex -2.500000e-003 -1.310243e-003 -4.234883e-003
         vertex 2.500000e-003 -1.310243e-003 -4.234883e-003
      endloop
   endfacet
   facet normal 0.000000e+000 -9.627989e-001 -2.702191e-001
      outer loop
         vertex 2.500000e-003 -1.310243e-003 -4.234883e-003
         vertex -2.500000e-003 -1.310243e-003 -4.234883e-003
         vertex -2.500000e-003 -1.233053e-003 -4.498694e-003
      endloop
   endfacet
   facet normal 0.000000e+000 -9.556895e-001 -2.943764e-001
      outer loop
         vertex 2.500000e-003 -1.310243e-003 -4.234883e-003
         vertex -2.500000e-003 -1.233053e-003 -4.498694e-003
         vertex 2.500000e-003 -1.233053e-003 -4.498694e-003
      endloop
   endfacet
   facet normal 0.000000e+000 -9.384766e-001 -3.453428e-001
      outer loop
         vertex 2.500000e-003 -1.233053e-003 -4.498694e-003
         vertex -2.500000e-003 -1.233053e-003 -4.498694e-003
         vertex -2.500000e-003 -1.145664e-003 -4.727251e-003
      endloop
   endfacet
   facet normal 0.000000e+000 -9.281957e-001 -3.720924e-001
      outer loop
         vertex 2.500000e-003 -1.233053e-003 -4.498694e-003
         vertex -2.500000e-003 -1.145664e-003 -4.727251e-003
         vertex 2.500000e-003 -1.145664e-003 -4.727251e-003
      endloop
   endfacet
   facet normal 0.000000e+000 -9.048172e-001 -4.258001e-001
      outer loop
         vertex 2.500000e-003 -1.145664e-003 -4.727251e-003
         vertex -2.500000e-003 -1.145664e-003 -4.727251e-003
         vertex -2.500000e-003 -1.056474e-003 -4.910375e-003
      endloop
   endfacet
   facet normal 0.000000e+000 -8.916490e-001 -4.527275e-001
      outer loop
         vertex 2.500000e-003 -1.145664e-003 -4.727251e-003
         vertex -2.500000e-003 -1.056474e-003 -4.910375e-003
         vertex 2.500000e-003 -1.056474e-003 -4.910375e-003
      endloop
   endfacet
   facet normal 0.000000e+000 -8.598909e-001 -5.104778e-001
      outer loop
         vertex 2.500000e-003 -1.056474e-003 -4.910375e-003
         vertex -2.500000e-003 -1.056474e-003 -4.910375e-003
         vertex -2.500000e-003 -9.528293e-004 -5.078722e-003
      endloop
   endfacet
   facet normal 0.000000e+000 -8.409518e-001 -5.411101e-001
      outer loop
         vertex 2.500000e-003 -1.056474e-003 -4.910375e-003
         vertex -2.500000e-003 -9.528293e-004 -5.078722e-003
         vertex 2.500000e-003 -9.528293e-004 -5.078722e-003
      endloop
   endfacet
   facet normal 0.000000e+000 -7.975955e-001 -6.031926e-001
      outer loop
         vertex 2.500000e-003 -9.528293e-004 -5.078722e-003
         vertex -2.500000e-003 -9.528293e-004 -5.078722e-003
         vertex -2.500000e-003 -8.419012e-004 -5.220006e-003
      endloop
   endfacet
   facet normal 0.000000e+000 -7.729411e-001 -6.344777e-001
      outer loop
         vertex 2.500000e-003 -9.528293e-004 -5.078722e-003
         vertex -2.500000e-003 -8.419012e-004 -5.220006e-003
         vertex 2.500000e-003 -8.419012e-004 -5.220006e-003
      endloop
   endfacet
   facet normal 0.000000e+000 -7.177010e-001 -6.963514e-001
      outer loop
         vertex 2.500000e-003 -8.419012e-004 -5.220006e-003
         vertex -2.500000e-003 -8.419012e-004 -5.220006e-003
         vertex -2.500000e-003 -7.239032e-004 -5.336824e-003
      endloop
   endfacet
   facet normal 0.000000e+000 -6.869019e-001 -7.267501e-001
      outer loop
         vertex 2.500000e-003 -8.419012e-004 -5.220006e-003
         vertex -2.500000e-003 -7.239032e-004 -5.336824e-003
         vertex 2.500000e-003 -7.239032e-004 -5.336824e-003
      endloop
   endfacet
   facet normal 0.000000e+000 -6.171134e-001 -7.868742e-001
      outer loop
         vertex 2.500000e-003 -7.239032e-004 -5.336824e-003
         vertex -2.500000e-003 -7.239032e-004 -5.336824e-003
         vertex -2.500000e-003 -5.900532e-004 -5.436834e-003
      endloop
   endfacet
   facet normal 0.000000e+000 -5.777745e-001 -8.161964e-001
      outer loop
         vertex 2.500000e-003 -7.239032e-004 -5.336824e-003
         vertex -2.500000e-003 -5.900532e-004 -5.436834e-003
         vertex 2.500000e-003 -5.900532e-004 -5.436834e-003
      endloop
   endfacet
   facet normal 0.000000e+000 -4.923660e-001 -8.703883e-001
      outer loop
         vertex 2.500000e-003 -5.900532e-004 -5.436834e-003
         vertex -2.500000e-003 -5.900532e-004 -5.436834e-003
         vertex -2.500000e-003 -4.422329e-004 -5.515490e-003
      endloop
   endfacet
   facet normal 0.000000e+000 -4.461163e-001 -8.949750e-001
      outer loop
         vertex 2.500000e-003 -5.900532e-004 -5.436834e-003
         vertex -2.500000e-003 -4.422329e-004 -5.515490e-003
         vertex 2.500000e-003 -4.422329e-004 -5.515490e-003
      endloop
   endfacet
   facet normal 0.000000e+000 -3.511442e-001 -9.363214e-001
      outer loop
         vertex 2.500000e-003 -4.422329e-004 -5.515490e-003
         vertex -2.500000e-003 -4.422329e-004 -5.515490e-003
         vertex -2.500000e-003 -2.855454e-004 -5.569596e-003
      endloop
   endfacet
   facet normal 0.000000e+000 -3.024573e-001 -9.531630e-001
      outer loop
         vertex 2.500000e-003 -4.422329e-004 -5.515490e-003
         vertex -2.500000e-003 -2.855454e-004 -5.569596e-003
         vertex 2.500000e-003 -2.855454e-004 -5.569596e-003
      endloop
   endfacet
   facet normal 0.000000e+000 -2.055419e-001 -9.786483e-001
      outer loop
         vertex 2.500000e-003 -2.855454e-004 -5.569596e-003
         vertex -2.500000e-003 -2.855454e-004 -5.569596e-003
         vertex -2.500000e-003 -1.184025e-004 -5.600221e-003
      endloop
   endfacet
   facet normal 0.000000e+000 -1.573780e-001 -9.875384e-001
      outer loop
         vertex 2.500000e-003 -2.855454e-004 -5.569596e-003
         vertex -2.500000e-003 -1.184025e-004 -5.600221e-003
         vertex 2.500000e-003 -1.184025e-004 -5.600221e-003
      endloop
   endfacet
   facet normal 0.000000e+000 -7.846106e-002 -9.969171e-001
      outer loop
         vertex 2.500000e-003 -1.184025e-004 -5.600221e-003
         vertex -2.500000e-003 -1.184025e-004 -5.600221e-003
         vertex -2.500000e-003 1.482963e-019 -5.607623e-003
      endloop
   endfacet
   facet normal 0.000000e+000 -4.786684e-002 -9.988537e-001
      outer loop
         vertex 2.500000e-003 -1.184025e-004 -5.600221e-003
         vertex -2.500000e-003 1.482963e-019 -5.607623e-003
         vertex 2.500000e-003 1.482963e-019 -5.607623e-003
      endloop
   endfacet
   facet normal 0.000000e+000 6.358065e-002 -9.979767e-001
      outer loop
         vertex 2.500000e-003 -1.482963e-019 -5.607623e-003
         vertex -2.500000e-003 -1.482963e-019 -5.607623e-003
         vertex -2.500000e-003 1.747882e-004 -5.592697e-003
      endloop
   endfacet
   facet normal 0.000000e+000 1.098677e-001 -9.939462e-001
      outer loop
         vertex 2.500000e-003 -1.482963e-019 -5.607623e-003
         vertex -2.500000e-003 1.747882e-004 -5.592697e-003
         vertex 2.500000e-003 1.747882e-004 -5.592697e-003
      endloop
   endfacet
   facet normal 0.000000e+000 2.037332e-001 -9.790264e-001
      outer loop
         vertex 2.500000e-003 1.747882e-004 -5.592697e-003
         vertex -2.500000e-003 1.747882e-004 -5.592697e-003
         vertex -2.500000e-003 3.347386e-004 -5.555492e-003
      endloop
   endfacet
   facet normal 0.000000e+000 2.512767e-001 -9.679152e-001
      outer loop
         vertex 2.500000e-003 1.747882e-004 -5.592697e-003
         vertex -2.500000e-003 3.347386e-004 -5.555492e-003
         vertex 2.500000e-003 3.347386e-004 -5.555492e-003
      endloop
   endfacet
   facet normal 0.000000e+000 3.449225e-001 -9.386311e-001
      outer loop
         vertex 2.500000e-003 3.347386e-004 -5.555492e-003
         vertex -2.500000e-003 3.347386e-004 -5.555492e-003
         vertex -2.500000e-003 4.816768e-004 -5.497368e-003
      endloop
   endfacet
   facet normal 0.000000e+000 3.910031e-001 -9.203894e-001
      outer loop
         vertex 2.500000e-003 3.347386e-004 -5.555492e-003
         vertex -2.500000e-003 4.816768e-004 -5.497368e-003
         vertex 2.500000e-003 4.816768e-004 -5.497368e-003
      endloop
   endfacet
   facet normal 0.000000e+000 4.791853e-001 -8.777137e-001
      outer loop
         vertex 2.500000e-003 4.816768e-004 -5.497368e-003
         vertex -2.500000e-003 4.816768e-004 -5.497368e-003
         vertex -2.500000e-003 6.174995e-004 -5.418772e-003
      endloop
   endfacet
   facet normal 0.000000e+000 5.213249e-001 -8.533583e-001
      outer loop
         vertex 2.500000e-003 4.816768e-004 -5.497368e-003
         vertex -2.500000e-003 6.174995e-004 -5.418772e-003
         vertex 2.500000e-003 6.174995e-004 -5.418772e-003
      endloop
   endfacet
   facet normal 0.000000e+000 6.011681e-001 -7.991226e-001
      outer loop
         vertex 2.500000e-003 6.174995e-004 -5.418772e-003
         vertex -2.500000e-003 6.174995e-004 -5.418772e-003
         vertex -2.500000e-003 7.484197e-004 -5.314989e-003
      endloop
   endfacet
   facet normal 0.000000e+000 6.389023e-001 -7.692879e-001
      outer loop
         vertex 2.500000e-003 6.174995e-004 -5.418772e-003
         vertex -2.500000e-003 7.484197e-004 -5.314989e-003
         vertex 2.500000e-003 7.484197e-004 -5.314989e-003
      endloop
   endfacet
   facet normal 0.000000e+000 7.059932e-001 -7.082186e-001
      outer loop
         vertex 2.500000e-003 7.484197e-004 -5.314989e-003
         vertex -2.500000e-003 7.484197e-004 -5.314989e-003
         vertex -2.500000e-003 8.655495e-004 -5.192724e-003
      endloop
   endfacet
   facet normal 0.000000e+000 7.356728e-001 -6.773371e-001
      outer loop
         vertex 2.500000e-003 7.484197e-004 -5.314989e-003
         vertex -2.500000e-003 8.655495e-004 -5.192724e-003
         vertex 2.500000e-003 8.655495e-004 -5.192724e-003
      endloop
   endfacet
   facet normal 0.000000e+000 7.884715e-001 -6.150712e-001
      outer loop
         vertex 2.500000e-003 8.655495e-004 -5.192724e-003
         vertex -2.500000e-003 8.655495e-004 -5.192724e-003
         vertex -2.500000e-003 9.747203e-004 -5.046454e-003
      endloop
   endfacet
   facet normal 0.000000e+000 8.118321e-001 -5.838910e-001
      outer loop
         vertex 2.500000e-003 8.655495e-004 -5.192724e-003
         vertex -2.500000e-003 9.747203e-004 -5.046454e-003
         vertex 2.500000e-003 9.747203e-004 -5.046454e-003
      endloop
   endfacet
   facet normal 0.000000e+000 8.526360e-001 -5.225053e-001
      outer loop
         vertex 2.500000e-003 9.747203e-004 -5.046454e-003
         vertex -2.500000e-003 9.747203e-004 -5.046454e-003
         vertex -2.500000e-003 1.075768e-003 -4.874190e-003
      endloop
   endfacet
   facet normal 0.000000e+000 8.703314e-001 -4.924665e-001
      outer loop
         vertex 2.500000e-003 9.747203e-004 -5.046454e-003
         vertex -2.500000e-003 1.075768e-003 -4.874190e-003
         vertex 2.500000e-003 1.075768e-003 -4.874190e-003
      endloop
   endfacet
   facet normal 0.000000e+000 9.016038e-001 -4.325630e-001
      outer loop
         vertex 2.500000e-003 1.075768e-003 -4.874190e-003
         vertex -2.500000e-003 1.075768e-003 -4.874190e-003
         vertex -2.500000e-003 1.174091e-003 -4.659191e-003
      endloop
   endfacet
   facet normal 0.000000e+000 9.153045e-001 -4.027625e-001
      outer loop
         vertex 2.500000e-003 1.075768e-003 -4.874190e-003
         vertex -2.500000e-003 1.174091e-003 -4.659191e-003
         vertex 2.500000e-003 1.174091e-003 -4.659191e-003
      endloop
   endfacet
   facet normal 0.000000e+000 9.376560e-001 -3.475647e-001
      outer loop
         vertex 2.500000e-003 1.174091e-003 -4.659191e-003
         vertex -2.500000e-003 1.174091e-003 -4.659191e-003
         vertex -2.500000e-003 1.256219e-003 -4.427000e-003
      endloop
   endfacet
   facet normal 0.000000e+000 9.466376e-001 -3.223001e-001
      outer loop
         vertex 2.500000e-003 1.174091e-003 -4.659191e-003
         vertex -2.500000e-003 1.256219e-003 -4.427000e-003
         vertex 2.500000e-003 1.256219e-003 -4.427000e-003
      endloop
   endfacet
   facet normal 0.000000e+000 9.616482e-001 -2.742859e-001
      outer loop
         vertex 2.500000e-003 1.256219e-003 -4.427000e-003
         vertex -2.500000e-003 1.256219e-003 -4.427000e-003
         vertex -2.500000e-003 1.328069e-003 -4.161895e-003
      endloop
   endfacet
   facet normal 0.000000e+000 9.678351e-001 -2.515855e-001
      outer loop
         vertex 2.500000e-003 1.256219e-003 -4.427000e-003
         vertex -2.500000e-003 1.328069e-003 -4.161895e-003
         vertex 2.500000e-003 1.328069e-003 -4.161895e-003
      endloop
   endfacet
   facet normal 0.000000e+000 9.779529e-001 -2.088257e-001
      outer loop
         vertex 2.500000e-003 1.328069e-003 -4.161895e-003
         vertex -2.500000e-003 1.328069e-003 -4.161895e-003
         vertex -2.500000e-003 1.388066e-003 -3.864276e-003
      endloop
   endfacet
   facet normal 0.000000e+000 9.820160e-001 -1.887975e-001
      outer loop
         vertex 2.500000e-003 1.328069e-003 -4.161895e-003
         vertex -2.500000e-003 1.388066e-003 -3.864276e-003
         vertex 2.500000e-003 1.388066e-003 -3.864276e-003
      endloop
   endfacet
   facet normal 0.000000e+000 9.884722e-001 -1.514024e-001
      outer loop
         vertex 2.500000e-003 1.388066e-003 -3.864276e-003
         vertex -2.500000e-003 1.388066e-003 -3.864276e-003
         vertex -2.500000e-003 1.435079e-003 -3.535772e-003
      endloop
   endfacet
   facet normal 0.000000e+000 9.909740e-001 -1.340541e-001
      outer loop
         vertex 2.500000e-003 1.388066e-003 -3.864276e-003
         vertex -2.500000e-003 1.435079e-003 -3.535772e-003
         vertex 2.500000e-003 1.435079e-003 -3.535772e-003
      endloop
   endfacet
   facet normal 0.000000e+000 9.947827e-001 -1.020165e-001
      outer loop
         vertex 2.500000e-003 1.435079e-003 -3.535772e-003
         vertex -2.500000e-003 1.435079e-003 -3.535772e-003
         vertex -2.500000e-003 1.469176e-003 -3.172980e-003
      endloop
   endfacet
   facet normal 0.000000e+000 9.961787e-001 -8.733766e-002
      outer loop
         vertex 2.500000e-003 1.435079e-003 -3.535772e-003
         vertex -2.500000e-003 1.469176e-003 -3.172980e-003
         vertex 2.500000e-003 1.469176e-003 -3.172980e-003
      endloop
   endfacet
   facet normal 0.000000e+000 9.980747e-001 -6.202352e-002
      outer loop
         vertex 2.500000e-003 1.469176e-003 -3.172980e-003
         vertex -2.500000e-003 1.469176e-003 -3.172980e-003
         vertex -2.500000e-003 1.494755e-003 -2.695768e-003
      endloop
   endfacet
   facet normal 0.000000e+000 9.986783e-001 -5.139576e-002
      outer loop
         vertex 2.500000e-003 1.469176e-003 -3.172980e-003
         vertex -2.500000e-003 1.494755e-003 -2.695768e-003
         vertex 2.500000e-003 1.494755e-003 -2.695768e-003
      endloop
   endfacet
   facet normal 0.000000e+000 9.996448e-001 -2.665390e-002
      outer loop
         vertex 2.500000e-003 1.494755e-003 -2.695768e-003
         vertex -2.500000e-003 1.494755e-003 -2.695768e-003
         vertex -2.500000e-003 1.506073e-003 -2.189972e-003
      endloop
   endfacet
   facet normal 0.000000e+000 9.999214e-001 -1.253628e-002
      outer loop
         vertex 2.500000e-003 1.494755e-003 -2.695768e-003
         vertex -2.500000e-003 1.506073e-003 -2.189972e-003
         vertex 2.500000e-003 1.506073e-003 -2.189972e-003
      endloop
   endfacet
   facet normal 0.000000e+000 9.998764e-001 1.572254e-002
      outer loop
         vertex 2.500000e-003 1.506073e-003 -2.189972e-003
         vertex -2.500000e-003 1.506073e-003 -2.189972e-003
         vertex -2.500000e-003 1.492700e-003 -1.614028e-003
      endloop
   endfacet
   facet normal 0.000000e+000 9.995540e-001 2.986375e-002
      outer loop
         vertex 2.500000e-003 1.506073e-003 -2.189972e-003
         vertex -2.500000e-003 1.492700e-003 -1.614028e-003
         vertex 2.500000e-003 1.492700e-003 -1.614028e-003
      endloop
   endfacet
   facet normal 0.000000e+000 9.983333e-001 5.771245e-002
      outer loop
         vertex 2.500000e-003 1.492700e-003 -1.614028e-003
         vertex -2.500000e-003 1.492700e-003 -1.614028e-003
         vertex -2.500000e-003 1.454431e-003 -1.022494e-003
      endloop
   endfacet
   facet normal 0.000000e+000 9.974463e-001 7.142043e-002
      outer loop
         vertex 2.500000e-003 1.492700e-003 -1.614028e-003
         vertex -2.500000e-003 1.454431e-003 -1.022494e-003
         vertex 2.500000e-003 1.454431e-003 -1.022494e-003
      endloop
   endfacet
   facet normal 0.000000e+000 9.950268e-001 9.960764e-002
      outer loop
         vertex 2.500000e-003 1.454431e-003 -1.022494e-003
         vertex -2.500000e-003 1.454431e-003 -1.022494e-003
         vertex -2.500000e-003 1.391536e-003 -4.348260e-004
      endloop
   endfacet
   facet normal 0.000000e+000 9.934710e-001 1.140849e-001
      outer loop
         vertex 2.500000e-003 1.454431e-003 -1.022494e-003
         vertex -2.500000e-003 1.391536e-003 -4.348260e-004
         vertex 2.500000e-003 1.391536e-003 -4.348260e-004
      endloop
   endfacet
   facet normal 0.000000e+000 9.897400e-001 1.428801e-001
      outer loop
         vertex 2.500000e-003 1.391536e-003 -4.348260e-004
         vertex -2.500000e-003 1.391536e-003 -4.348260e-004
         vertex -2.500000e-003 1.316863e-003 5.962072e-005
      endloop
   endfacet
   facet normal 0.000000e+000 9.875670e-001 1.571984e-001
      outer loop
         vertex 2.500000e-003 1.391536e-003 -4.348260e-004
         vertex -2.500000e-003 1.316863e-003 5.962072e-005
         vertex 2.500000e-003 1.316863e-003 5.962072e-005
      endloop
   endfacet
   facet normal 0.000000e+000 9.822640e-001 1.875034e-001
      outer loop
         vertex 2.500000e-003 1.316863e-003 5.962072e-005
         vertex -2.500000e-003 1.316863e-003 5.962072e-005
         vertex -2.500000e-003 1.230065e-003 4.973590e-004
      endloop
   endfacet
   facet normal 0.000000e+000 9.790790e-001 2.034805e-001
      outer loop
         vertex 2.500000e-003 1.316863e-003 5.962072e-005
         vertex -2.500000e-003 1.230065e-003 4.973590e-004
         vertex 2.500000e-003 1.230065e-003 4.973590e-004
      endloop
   endfacet
   facet normal 0.000000e+000 9.708796e-001 2.395681e-001
      outer loop
         vertex 2.500000e-003 1.230065e-003 4.973590e-004
         vertex -2.500000e-003 1.230065e-003 4.973590e-004
         vertex -2.500000e-003 1.121404e-003 9.215324e-004
      endloop
   endfacet
   facet normal 0.000000e+000 9.657048e-001 2.596427e-001
      outer loop
         vertex 2.500000e-003 1.230065e-003 4.973590e-004
         vertex -2.500000e-003 1.121404e-003 9.215324e-004
         vertex 2.500000e-003 1.121404e-003 9.215324e-004
      endloop
   endfacet
   facet normal 0.000000e+000 9.534618e-001 3.015138e-001
      outer loop
         vertex 2.500000e-003 1.121404e-003 9.215324e-004
         vertex -2.500000e-003 1.121404e-003 9.215324e-004
         vertex -2.500000e-003 1.008693e-003 1.266068e-003
      endloop
   endfacet
   facet normal 0.000000e+000 9.463021e-001 3.232836e-001
      outer loop
         vertex 2.500000e-003 1.121404e-003 9.215324e-004
         vertex -2.500000e-003 1.008693e-003 1.266068e-003
         vertex 2.500000e-003 1.008693e-003 1.266068e-003
      endloop
   endfacet
   facet normal 0.000000e+000 9.287861e-001 3.706163e-001
      outer loop
         vertex 2.500000e-003 1.008693e-003 1.266068e-003
         vertex -2.500000e-003 1.008693e-003 1.266068e-003
         vertex -2.500000e-003 8.846665e-004 1.566674e-003
      endloop
   endfacet
   facet normal 0.000000e+000 9.182083e-001 3.960978e-001
      outer loop
         vertex 2.500000e-003 1.008693e-003 1.266068e-003
         vertex -2.500000e-003 8.846665e-004 1.566674e-003
         vertex 2.500000e-003 8.846665e-004 1.566674e-003
      endloop
   endfacet
   facet normal 0.000000e+000 8.942964e-001 4.474752e-001
      outer loop
         vertex 2.500000e-003 8.846665e-004 1.566674e-003
         vertex -2.500000e-003 8.846665e-004 1.566674e-003
         vertex -2.500000e-003 7.690887e-004 1.790697e-003
      endloop
   endfacet
   facet normal 0.000000e+000 8.808829e-001 4.733343e-001
      outer loop
         vertex 2.500000e-003 8.846665e-004 1.566674e-003
         vertex -2.500000e-003 7.690887e-004 1.790697e-003
         vertex 2.500000e-003 7.690887e-004 1.790697e-003
      endloop
   endfacet
   facet normal 0.000000e+000 8.493021e-001 5.279072e-001
      outer loop
         vertex 2.500000e-003 7.690887e-004 1.790697e-003
         vertex -2.500000e-003 7.690887e-004 1.790697e-003
         vertex -2.500000e-003 6.525041e-004 1.972398e-003
      endloop
   endfacet
   facet normal 0.000000e+000 8.308690e-001 5.564681e-001
      outer loop
         vertex 2.500000e-003 7.690887e-004 1.790697e-003
         vertex -2.500000e-003 6.525041e-004 1.972398e-003
         vertex 2.500000e-003 6.525041e-004 1.972398e-003
      endloop
   endfacet
   facet normal 0.000000e+000 7.857905e-001 6.184928e-001
      outer loop
         vertex 2.500000e-003 6.525041e-004 1.972398e-003
         vertex -2.500000e-003 6.525041e-004 1.972398e-003
         vertex -2.500000e-003 5.283722e-004 2.124447e-003
      endloop
   endfacet
   facet normal 0.000000e+000 7.585962e-001 6.515610e-001
      outer loop
         vertex 2.500000e-003 6.525041e-004 1.972398e-003
         vertex -2.500000e-003 5.283722e-004 2.124447e-003
         vertex 2.500000e-003 5.283722e-004 2.124447e-003
      endloop
   endfacet
   facet normal 0.000000e+000 6.973698e-001 7.167115e-001
      outer loop
         vertex 2.500000e-003 5.283722e-004 2.124447e-003
         vertex -2.500000e-003 5.283722e-004 2.124447e-003
         vertex -2.500000e-003 4.140814e-004 2.231295e-003
      endloop
   endfacet
   facet normal 0.000000e+000 6.630778e-001 7.485505e-001
      outer loop
         vertex 2.500000e-003 5.283722e-004 2.124447e-003
         vertex -2.500000e-003 4.140814e-004 2.231295e-003
         vertex 2.500000e-003 4.140814e-004 2.231295e-003
      endloop
   endfacet
   facet normal 0.000000e+000 5.863537e-001 8.100551e-001
      outer loop
         vertex 2.500000e-003 4.140814e-004 2.231295e-003
         vertex -2.500000e-003 4.140814e-004 2.231295e-003
         vertex -2.500000e-003 3.053842e-004 2.306269e-003
      endloop
   endfacet
   facet normal 0.000000e+000 5.436119e-001 8.393367e-001
      outer loop
         vertex 2.500000e-003 4.140814e-004 2.231295e-003
         vertex -2.500000e-003 3.053842e-004 2.306269e-003
         vertex 2.500000e-003 3.053842e-004 2.306269e-003
      endloop
   endfacet
   facet normal 0.000000e+000 4.540924e-001 8.909546e-001
      outer loop
         vertex 2.500000e-003 3.053842e-004 2.306269e-003
         vertex -2.500000e-003 3.053842e-004 2.306269e-003
         vertex -2.500000e-003 2.086782e-004 2.352702e-003
      endloop
   endfacet
   facet normal 0.000000e+000 4.073134e-001 9.132885e-001
      outer loop
         vertex 2.500000e-003 3.053842e-004 2.306269e-003
         vertex -2.500000e-003 2.086782e-004 2.352702e-003
         vertex 2.500000e-003 2.086782e-004 2.352702e-003
      endloop
   endfacet
   facet normal 0.000000e+000 3.105207e-001 9.505666e-001
      outer loop
         vertex 2.500000e-003 2.086782e-004 2.352702e-003
         vertex -2.500000e-003 2.086782e-004 2.352702e-003
         vertex -2.500000e-003 1.183101e-004 2.379762e-003
      endloop
   endfacet
   facet normal 0.000000e+000 2.604935e-001 9.654756e-001
      outer loop
         vertex 2.500000e-003 2.086782e-004 2.352702e-003
         vertex -2.500000e-003 1.183101e-004 2.379762e-003
         vertex 2.500000e-003 1.183101e-004 2.379762e-003
      endloop
   endfacet
   facet normal 0.000000e+000 1.584921e-001 9.873602e-001
      outer loop
         vertex 2.500000e-003 1.183101e-004 2.379762e-003
         vertex -2.500000e-003 1.183101e-004 2.379762e-003
         vertex -2.500000e-003 3.044724e-005 2.391550e-003
      endloop
   endfacet
   facet normal 0.000000e+000 1.065128e-001 9.943113e-001
      outer loop
         vertex 2.500000e-003 1.183101e-004 2.379762e-003
         vertex -2.500000e-003 3.044724e-005 2.391550e-003
         vertex 2.500000e-003 3.044724e-005 2.391550e-003
      endloop
   endfacet
   facet normal 0.000000e+000 3.626798e-002 9.993421e-001
      outer loop
         vertex 2.500000e-003 3.044724e-005 2.391550e-003
         vertex -2.500000e-003 3.044724e-005 2.391550e-003
         vertex -2.500000e-003 -4.504376e-019 2.392377e-003
      endloop
   endfacet
   facet normal 0.000000e+000 1.813399e-002 9.998356e-001
      outer loop
         vertex 2.500000e-003 3.044724e-005 2.391550e-003
         vertex -2.500000e-003 -4.504376e-019 2.392377e-003
         vertex 2.500000e-003 -4.504376e-019 2.392377e-003
      endloop
   endfacet
   facet normal 1.000000e+000 0.000000e+000 0.000000e+000
      outer loop
         vertex 2.500000e-003 -1.416449e-003 -6.399318e-004
         vertex 2.500000e-003 -1.468437e-003 -1.199380e-003
         vertex 2.500000e-003 1.492700e-003 -1.614028e-003
      endloop
   endfacet
   facet normal 1.000000e+000 0.000000e+000 0.000000e+000
      outer loop
         vertex 2.500000e-003 1.492700e-003 -1.614028e-003
         vertex 2.500000e-003 -1.468437e-003 -1.199380e-003
         vertex 2.500000e-003 -1.499098e-003 -1.781947e-003
      endloop
   endfacet
   facet normal 1.000000e+000 0.000000e+000 0.000000e+000
      outer loop
         vertex 2.500000e-003 1.492700e-003 -1.614028e-003
         vertex 2.500000e-003 -1.499098e-003 -1.781947e-003
         vertex 2.500000e-003 1.506073e-003 -2.189972e-003
      endloop
   endfacet
   facet normal 1.000000e+000 0.000000e+000 0.000000e+000
      outer loop
         vertex 2.500000e-003 -1.499098e-003 -1.781947e-003
         vertex 2.500000e-003 -1.504808e-003 -2.028699e-003
         vertex 2.500000e-003 1.506073e-003 -2.189972e-003
      endloop
   endfacet
   facet normal 1.000000e+000 0.000000e+000 0.000000e+000
      outer loop
         vertex 2.500000e-003 1.506073e-003 -2.189972e-003
         vertex 2.500000e-003 -1.504808e-003 -2.028699e-003
         vertex 2.500000e-003 -1.503794e-003 -2.420469e-003
      endloop
   endfacet
   facet normal 1.000000e+000 0.000000e+000 0.000000e+000
      outer loop
         vertex 2.500000e-003 1.506073e-003 -2.189972e-003
         vertex 2.500000e-003 -1.503794e-003 -2.420469e-003
         vertex 2.500000e-003 1.494755e-003 -2.695768e-003
      endloop
   endfacet
   facet normal 1.000000e+000 0.000000e+000 0.000000e+000
      outer loop
         vertex 2.500000e-003 1.494755e-003 -2.695768e-003
         vertex 2.500000e-003 -1.503794e-003 -2.420469e-003
         vertex 2.500000e-003 -1.490999e-003 -2.784188e-003
      endloop
   endfacet
   facet normal 1.000000e+000 0.000000e+000 0.000000e+000
      outer loop
         vertex 2.500000e-003 1.494755e-003 -2.695768e-003
         vertex 2.500000e-003 -1.490999e-003 -2.784188e-003
         vertex 2.500000e-003 1.469176e-003 -3.172980e-003
      endloop
   endfacet
   facet normal 1.000000e+000 0.000000e+000 0.000000e+000
      outer loop
         vertex 2.500000e-003 1.469176e-003 -3.172980e-003
         vertex 2.500000e-003 -1.490999e-003 -2.784188e-003
         vertex 2.500000e-003 -1.466591e-003 -3.207613e-003
      endloop
   endfacet
   facet normal 1.000000e+000 0.000000e+000 0.000000e+000
      outer loop
         vertex 2.500000e-003 1.469176e-003 -3.172980e-003
         vertex 2.500000e-003 -1.466591e-003 -3.207613e-003
         vertex 2.500000e-003 1.435079e-003 -3.535772e-003
      endloop
   endfacet
   facet normal 1.000000e+000 0.000000e+000 0.000000e+000
      outer loop
         vertex 2.500000e-003 1.435079e-003 -3.535772e-003
         vertex 2.500000e-003 -1.466591e-003 -3.207613e-003
         vertex 2.500000e-003 -1.427736e-003 -3.596036e-003
      endloop
   endfacet
   facet normal 1.000000e+000 0.000000e+000 0.000000e+000
      outer loop
         vertex 2.500000e-003 1.435079e-003 -3.535772e-003
         vertex 2.500000e-003 -1.427736e-003 -3.596036e-003
         vertex 2.500000e-003 1.388066e-003 -3.864276e-003
      endloop
   endfacet
   facet normal 1.000000e+000 0.000000e+000 0.000000e+000
      outer loop
         vertex 2.500000e-003 1.388066e-003 -3.864276e-003
         vertex 2.500000e-003 -1.427736e-003 -3.596036e-003
         vertex 2.500000e-003 -1.375695e-003 -3.933862e-003
      endloop
   endfacet
   facet normal 1.000000e+000 0.000000e+000 0.000000e+000
      outer loop
         vertex 2.500000e-003 1.388066e-003 -3.864276e-003
         vertex 2.500000e-003 -1.375695e-003 -3.933862e-003
         vertex 2.500000e-003 1.328069e-003 -4.161895e-003
      endloop
   endfacet
   facet normal 1.000000e+000 0.000000e+000 0.000000e+000
      outer loop
         vertex 2.500000e-003 1.328069e-003 -4.161895e-003
         vertex 2.500000e-003 -1.375695e-003 -3.933862e-003
         vertex 2.500000e-003 -1.310243e-003 -4.234883e-003
      endloop
   endfacet
   facet normal 1.000000e+000 0.000000e+000 0.000000e+000
      outer loop
         vertex 2.500000e-003 1.328069e-003 -4.161895e-003
         vertex 2.500000e-003 -1.310243e-003 -4.234883e-003
         vertex 2.500000e-003 1.256219e-003 -4.427000e-003
      endloop
   endfacet
   facet normal 1.000000e+000 0.000000e+000 0.000000e+000
      outer loop
         vertex 2.500000e-003 -1.310243e-003 -4.234883e-003
         vertex 2.500000e-003 -1.233053e-003 -4.498694e-003
         vertex 2.500000e-003 1.256219e-003 -4.427000e-003
      endloop
   endfacet
   facet normal 1.000000e+000 0.000000e+000 0.000000e+000
      outer loop
         vertex 2.500000e-003 1.256219e-003 -4.427000e-003
         vertex 2.500000e-003 -1.233053e-003 -4.498694e-003
         vertex 2.500000e-003 -1.145664e-003 -4.727251e-003
      endloop
   endfacet
   facet normal 1.000000e+000 0.000000e+000 0.000000e+000
      outer loop
         vertex 2.500000e-003 1.256219e-003 -4.427000e-003
         vertex 2.500000e-003 -1.145664e-003 -4.727251e-003
         vertex 2.500000e-003 1.174091e-003 -4.659191e-003
      endloop
   endfacet
   facet normal 1.000000e+000 0.000000e+000 0.000000e+000
      outer loop
         vertex 2.500000e-003 1.174091e-003 -4.659191e-003
         vertex 2.500000e-003 -1.145664e-003 -4.727251e-003
         vertex 2.500000e-003 -1.056474e-003 -4.910375e-003
      endloop
   endfacet
   facet normal 1.000000e+000 0.000000e+000 0.000000e+000
      outer loop
         vertex 2.500000e-003 8.655495e-004 -5.192724e-003
         vertex 2.500000e-003 9.747203e-004 -5.046454e-003
         vertex 2.500000e-003 -1.184025e-004 -5.600221e-003
      endloop
   endfacet
   facet normal 1.000000e+000 0.000000e+000 0.000000e+000
      outer loop
         vertex 2.500000e-003 -9.528293e-004 -5.078722e-003
         vertex 2.500000e-003 9.747203e-004 -5.046454e-003
         vertex 2.500000e-003 -1.056474e-003 -4.910375e-003
      endloop
   endfacet
   facet normal 1.000000e+000 0.000000e+000 0.000000e+000
      outer loop
         vertex 2.500000e-003 -1.056474e-003 -4.910375e-003
         vertex 2.500000e-003 9.747203e-004 -5.046454e-003
         vertex 2.500000e-003 1.075768e-003 -4.874190e-003
      endloop
   endfacet
   facet normal 1.000000e+000 0.000000e+000 0.000000e+000
      outer loop
         vertex 2.500000e-003 -1.056474e-003 -4.910375e-003
         vertex 2.500000e-003 1.075768e-003 -4.874190e-003
         vertex 2.500000e-003 1.174091e-003 -4.659191e-003
      endloop
   endfacet
   facet normal 1.000000e+000 0.000000e+000 0.000000e+000
      outer loop
         vertex 2.500000e-003 1.492700e-003 -1.614028e-003
         vertex 2.500000e-003 1.454431e-003 -1.022494e-003
         vertex 2.500000e-003 -1.416449e-003 -6.399318e-004
      endloop
   endfacet
   facet normal 1.000000e+000 0.000000e+000 0.000000e+000
      outer loop
         vertex 2.500000e-003 -1.416449e-003 -6.399318e-004
         vertex 2.500000e-003 1.454431e-003 -1.022494e-003
         vertex 2.500000e-003 1.391536e-003 -4.348260e-004
      endloop
   endfacet
   facet normal 1.000000e+000 0.000000e+000 0.000000e+000
      outer loop
         vertex 2.500000e-003 -1.416449e-003 -6.399318e-004
         vertex 2.500000e-003 1.391536e-003 -4.348260e-004
         vertex 2.500000e-003 -1.347608e-003 -1.267708e-004
      endloop
   endfacet
   facet normal 1.000000e+000 0.000000e+000 0.000000e+000
      outer loop
         vertex 2.500000e-003 -1.347608e-003 -1.267708e-004
         vertex 2.500000e-003 1.391536e-003 -4.348260e-004
         vertex 2.500000e-003 1.316863e-003 5.962072e-005
      endloop
   endfacet
   facet normal 1.000000e+000 0.000000e+000 0.000000e+000
      outer loop
         vertex 2.500000e-003 -1.347608e-003 -1.267708e-004
         vertex 2.500000e-003 1.316863e-003 5.962072e-005
         vertex 2.500000e-003 -1.264755e-003 3.356189e-004
      endloop
   endfacet
   facet normal 1.000000e+000 0.000000e+000 0.000000e+000
      outer loop
         vertex 2.500000e-003 -1.264755e-003 3.356189e-004
         vertex 2.500000e-003 1.316863e-003 5.962072e-005
         vertex 2.500000e-003 1.230065e-003 4.973590e-004
      endloop
   endfacet
   facet normal 1.000000e+000 0.000000e+000 0.000000e+000
      outer loop
         vertex 2.500000e-003 -1.264755e-003 3.356189e-004
         vertex 2.500000e-003 1.230065e-003 4.973590e-004
         vertex 2.500000e-003 -1.170425e-003 7.435965e-004
      endloop
   endfacet
   facet normal 1.000000e+000 0.000000e+000 0.000000e+000
      outer loop
         vertex 2.500000e-003 -1.170425e-003 7.435965e-004
         vertex 2.500000e-003 1.230065e-003 4.973590e-004
         vertex 2.500000e-003 1.121404e-003 9.215324e-004
      endloop
   endfacet
   facet normal 1.000000e+000 0.000000e+000 0.000000e+000
      outer loop
         vertex 2.500000e-003 -1.170425e-003 7.435965e-004
         vertex 2.500000e-003 1.121404e-003 9.215324e-004
         vertex 2.500000e-003 -1.066780e-003 1.098499e-003
      endloop
   endfacet
   facet normal 1.000000e+000 0.000000e+000 0.000000e+000
      outer loop
         vertex 2.500000e-003 -1.066780e-003 1.098499e-003
         vertex 2.500000e-003 1.121404e-003 9.215324e-004
         vertex 2.500000e-003 1.008693e-003 1.266068e-003
      endloop
   endfacet
   facet normal 1.000000e+000 0.000000e+000 0.000000e+000
      outer loop
         vertex 2.500000e-003 -1.066780e-003 1.098499e-003
         vertex 2.500000e-003 1.008693e-003 1.266068e-003
         vertex 2.500000e-003 -9.516491e-004 1.413091e-003
      endloop
   endfacet
   facet normal 1.000000e+000 0.000000e+000 0.000000e+000
      outer loop
         vertex 2.500000e-003 -9.516491e-004 1.413091e-003
         vertex 2.500000e-003 1.008693e-003 1.266068e-003
         vertex 2.500000e-003 8.846665e-004 1.566674e-003
      endloop
   endfacet
   facet normal 1.000000e+000 0.000000e+000 0.000000e+000
      outer loop
         vertex 2.500000e-003 -9.516491e-004 1.413091e-003
         vertex 2.500000e-003 8.846665e-004 1.566674e-003
         vertex 2.500000e-003 -8.367556e-004 1.665385e-003
      endloop
   endfacet
   facet normal 1.000000e+000 0.000000e+000 0.000000e+000
      outer loop
         vertex 2.500000e-003 -8.367556e-004 1.665385e-003
         vertex 2.500000e-003 8.846665e-004 1.566674e-003
         vertex 2.500000e-003 7.690887e-004 1.790697e-003
      endloop
   endfacet
   facet normal 1.000000e+000 0.000000e+000 0.000000e+000
      outer loop
         vertex 2.500000e-003 -8.367556e-004 1.665385e-003
         vertex 2.500000e-003 7.690887e-004 1.790697e-003
         vertex 2.500000e-003 -7.200978e-004 1.872023e-003
      endloop
   endfacet
   facet normal 1.000000e+000 0.000000e+000 0.000000e+000
      outer loop
         vertex 2.500000e-003 -7.200978e-004 1.872023e-003
         vertex 2.500000e-003 7.690887e-004 1.790697e-003
         vertex 2.500000e-003 6.525041e-004 1.972398e-003
      endloop
   endfacet
   facet normal 1.000000e+000 0.000000e+000 0.000000e+000
      outer loop
         vertex 2.500000e-003 -7.200978e-004 1.872023e-003
         vertex 2.500000e-003 6.525041e-004 1.972398e-003
         vertex 2.500000e-003 5.283722e-004 2.124447e-003
      endloop
   endfacet
   facet normal 1.000000e+000 0.000000e+000 0.000000e+000
      outer loop
         vertex 2.500000e-003 -9.528293e-004 -5.078722e-003
         vertex 2.500000e-003 -8.419012e-004 -5.220006e-003
         vertex 2.500000e-003 9.747203e-004 -5.046454e-003
      endloop
   endfacet
   facet normal 1.000000e+000 0.000000e+000 0.000000e+000
      outer loop
         vertex 2.500000e-003 9.747203e-004 -5.046454e-003
         vertex 2.500000e-003 -8.419012e-004 -5.220006e-003
         vertex 2.500000e-003 -7.239032e-004 -5.336824e-003
      endloop
   endfacet
   facet normal 1.000000e+000 0.000000e+000 0.000000e+000
      outer loop
         vertex 2.500000e-003 9.747203e-004 -5.046454e-003
         vertex 2.500000e-003 -7.239032e-004 -5.336824e-003
         vertex 2.500000e-003 -5.900532e-004 -5.436834e-003
      endloop
   endfacet
   facet normal 1.000000e+000 0.000000e+000 0.000000e+000
      outer loop
         vertex 2.500000e-003 8.655495e-004 -5.192724e-003
         vertex 2.500000e-003 -1.184025e-004 -5.600221e-003
         vertex 2.500000e-003 7.484197e-004 -5.314989e-003
      endloop
   endfacet
   facet normal 1.000000e+000 0.000000e+000 0.000000e+000
      outer loop
         vertex 2.500000e-003 7.484197e-004 -5.314989e-003
         vertex 2.500000e-003 -1.184025e-004 -5.600221e-003
         vertex 2.500000e-003 -2.168404e-019 -5.607623e-003
      endloop
   endfacet
   facet normal 1.000000e+000 0.000000e+000 0.000000e+000
      outer loop
         vertex 2.500000e-003 7.484197e-004 -5.314989e-003
         vertex 2.500000e-003 -2.168404e-019 -5.607623e-003
         vertex 2.500000e-003 1.747882e-004 -5.592697e-003
      endloop
   endfacet
   facet normal 1.000000e+000 0.000000e+000 0.000000e+000
      outer loop
         vertex 2.500000e-003 -3.741907e-004 2.261710e-003
         vertex 2.500000e-003 -4.821476e-004 2.171285e-003
         vertex 2.500000e-003 -4.336809e-019 2.392377e-003
      endloop
   endfacet
   facet normal 1.000000e+000 0.000000e+000 0.000000e+000
      outer loop
         vertex 2.500000e-003 -4.336809e-019 2.392377e-003
         vertex 2.500000e-003 -4.821476e-004 2.171285e-003
         vertex 2.500000e-003 -6.034950e-004 2.037198e-003
      endloop
   endfacet
   facet normal 1.000000e+000 0.000000e+000 0.000000e+000
      outer loop
         vertex 2.500000e-003 -4.336809e-019 2.392377e-003
         vertex 2.500000e-003 -6.034950e-004 2.037198e-003
         vertex 2.500000e-003 -7.200978e-004 1.872023e-003
      endloop
   endfacet
   facet normal 1.000000e+000 0.000000e+000 0.000000e+000
      outer loop
         vertex 2.500000e-003 -5.900532e-004 -5.436834e-003
         vertex 2.500000e-003 -4.422329e-004 -5.515490e-003
         vertex 2.500000e-003 9.747203e-004 -5.046454e-003
      endloop
   endfacet
   facet normal 1.000000e+000 0.000000e+000 0.000000e+000
      outer loop
         vertex 2.500000e-003 9.747203e-004 -5.046454e-003
         vertex 2.500000e-003 -4.422329e-004 -5.515490e-003
         vertex 2.500000e-003 -2.855454e-004 -5.569596e-003
      endloop
   endfacet
   facet normal 1.000000e+000 0.000000e+000 0.000000e+000
      outer loop
         vertex 2.500000e-003 9.747203e-004 -5.046454e-003
         vertex 2.500000e-003 -2.855454e-004 -5.569596e-003
         vertex 2.500000e-003 -1.184025e-004 -5.600221e-003
      endloop
   endfacet
   facet normal 1.000000e+000 0.000000e+000 0.000000e+000
      outer loop
         vertex 2.500000e-003 3.347386e-004 -5.555492e-003
         vertex 2.500000e-003 4.816768e-004 -5.497368e-003
         vertex 2.500000e-003 1.747882e-004 -5.592697e-003
      endloop
   endfacet
   facet normal 1.000000e+000 0.000000e+000 0.000000e+000
      outer loop
         vertex 2.500000e-003 1.747882e-004 -5.592697e-003
         vertex 2.500000e-003 4.816768e-004 -5.497368e-003
         vertex 2.500000e-003 6.174995e-004 -5.418772e-003
      endloop
   endfacet
   facet normal 1.000000e+000 0.000000e+000 0.000000e+000
      outer loop
         vertex 2.500000e-003 1.747882e-004 -5.592697e-003
         vertex 2.500000e-003 6.174995e-004 -5.418772e-003
         vertex 2.500000e-003 7.484197e-004 -5.314989e-003
      endloop
   endfacet
   facet normal 1.000000e+000 0.000000e+000 0.000000e+000
      outer loop
         vertex 2.500000e-003 5.283722e-004 2.124447e-003
         vertex 2.500000e-003 4.140814e-004 2.231295e-003
         vertex 2.500000e-003 -7.200978e-004 1.872023e-003
      endloop
   endfacet
   facet normal 1.000000e+000 0.000000e+000 0.000000e+000
      outer loop
         vertex 2.500000e-003 -7.200978e-004 1.872023e-003
         vertex 2.500000e-003 4.140814e-004 2.231295e-003
         vertex 2.500000e-003 3.053842e-004 2.306269e-003
      endloop
   endfacet
   facet normal 1.000000e+000 0.000000e+000 0.000000e+000
      outer loop
         vertex 2.500000e-003 -7.200978e-004 1.872023e-003
         vertex 2.500000e-003 3.053842e-004 2.306269e-003
         vertex 2.500000e-003 2.086782e-004 2.352702e-003
      endloop
   endfacet
   facet normal 1.000000e+000 0.000000e+000 0.000000e+000
      outer loop
         vertex 2.500000e-003 2.086782e-004 2.352702e-003
         vertex 2.500000e-003 1.183101e-004 2.379762e-003
         vertex 2.500000e-003 -7.200978e-004 1.872023e-003
      endloop
   endfacet
   facet normal 1.000000e+000 0.000000e+000 0.000000e+000
      outer loop
         vertex 2.500000e-003 -7.200978e-004 1.872023e-003
         vertex 2.500000e-003 1.183101e-004 2.379762e-003
         vertex 2.500000e-003 3.044724e-005 2.391550e-003
      endloop
   endfacet
   facet normal 1.000000e+000 0.000000e+000 0.000000e+000
      outer loop
         vertex 2.500000e-003 -7.200978e-004 1.872023e-003
         vertex 2.500000e-003 3.044724e-005 2.391550e-003
         vertex 2.500000e-003 -4.336809e-019 2.392377e-003
      endloop
   endfacet
   facet normal 1.000000e+000 0.000000e+000 0.000000e+000
      outer loop
         vertex 2.500000e-003 -9.221931e-005 2.384734e-003
         vertex 2.500000e-003 -1.832667e-004 2.361874e-003
         vertex 2.500000e-003 -4.336809e-019 2.392377e-003
      endloop
   endfacet
   facet normal 1.000000e+000 0.000000e+000 0.000000e+000
      outer loop
         vertex 2.500000e-003 -4.336809e-019 2.392377e-003
         vertex 2.500000e-003 -1.832667e-004 2.361874e-003
         vertex 2.500000e-003 -2.759354e-004 2.322374e-003
      endloop
   endfacet
   facet normal 1.000000e+000 0.000000e+000 0.000000e+000
      outer loop
         vertex 2.500000e-003 -4.336809e-019 2.392377e-003
         vertex 2.500000e-003 -2.759354e-004 2.322374e-003
         vertex 2.500000e-003 -3.741907e-004 2.261710e-003
      endloop
   endfacet
   facet normal -1.000000e+000 0.000000e+000 0.000000e+000
      outer loop
         vertex -2.500000e-003 1.492700e-003 -1.614028e-003
         vertex -2.500000e-003 1.506073e-003 -2.189972e-003
         vertex -2.500000e-003 -1.504808e-003 -2.028699e-003
      endloop
   endfacet
   facet normal -1.000000e+000 0.000000e+000 0.000000e+000
      outer loop
         vertex -2.500000e-003 -1.504808e-003 -2.028699e-003
         vertex -2.500000e-003 1.506073e-003 -2.189972e-003
         vertex -2.500000e-003 -1.503794e-003 -2.420469e-003
      endloop
   endfacet
   facet normal -1.000000e+000 0.000000e+000 0.000000e+000
      outer loop
         vertex -2.500000e-003 -1.503794e-003 -2.420469e-003
         vertex -2.500000e-003 1.506073e-003 -2.189972e-003
         vertex -2.500000e-003 1.494755e-003 -2.695768e-003
      endloop
   endfacet
   facet normal -1.000000e+000 0.000000e+000 0.000000e+000
      outer loop
         vertex -2.500000e-003 -1.503794e-003 -2.420469e-003
         vertex -2.500000e-003 1.494755e-003 -2.695768e-003
         vertex -2.500000e-003 -1.490999e-003 -2.784188e-003
      endloop
   endfacet
   facet normal -1.000000e+000 0.000000e+000 0.000000e+000
      outer loop
         vertex -2.500000e-003 -1.490999e-003 -2.784188e-003
         vertex -2.500000e-003 1.494755e-003 -2.695768e-003
         vertex -2.500000e-003 1.469176e-003 -3.172980e-003
      endloop
   endfacet
   facet normal -1.000000e+000 0.000000e+000 0.000000e+000
      outer loop
         vertex -2.500000e-003 -1.490999e-003 -2.784188e-003
         vertex -2.500000e-003 1.469176e-003 -3.172980e-003
         vertex -2.500000e-003 -1.466591e-003 -3.207613e-003
      endloop
   endfacet
   facet normal -1.000000e+000 0.000000e+000 0.000000e+000
      outer loop
         vertex -2.500000e-003 -1.466591e-003 -3.207613e-003
         vertex -2.500000e-003 1.469176e-003 -3.172980e-003
         vertex -2.500000e-003 1.435079e-003 -3.535772e-003
      endloop
   endfacet
   facet normal -1.000000e+000 0.000000e+000 0.000000e+000
      outer loop
         vertex -2.500000e-003 -1.466591e-003 -3.207613e-003
         vertex -2.500000e-003 1.435079e-003 -3.535772e-003
         vertex -2.500000e-003 -1.427736e-003 -3.596036e-003
      endloop
   endfacet
   facet normal -1.000000e+000 0.000000e+000 0.000000e+000
      outer loop
         vertex -2.500000e-003 -1.427736e-003 -3.596036e-003
         vertex -2.500000e-003 1.435079e-003 -3.535772e-003
         vertex -2.500000e-003 1.388066e-003 -3.864276e-003
      endloop
   endfacet
   facet normal -1.000000e+000 0.000000e+000 0.000000e+000
      outer loop
         vertex -2.500000e-003 -1.427736e-003 -3.596036e-003
         vertex -2.500000e-003 1.388066e-003 -3.864276e-003
         vertex -2.500000e-003 -1.375695e-003 -3.933862e-003
      endloop
   endfacet
   facet normal -1.000000e+000 0.000000e+000 0.000000e+000
      outer loop
         vertex -2.500000e-003 -1.375695e-003 -3.933862e-003
         vertex -2.500000e-003 1.388066e-003 -3.864276e-003
         vertex -2.500000e-003 1.328069e-003 -4.161895e-003
      endloop
   endfacet
   facet normal -1.000000e+000 0.000000e+000 0.000000e+000
      outer loop
         vertex -2.500000e-003 -1.375695e-003 -3.933862e-003
         vertex -2.500000e-003 1.328069e-003 -4.161895e-003
         vertex -2.500000e-003 -1.310243e-003 -4.234883e-003
      endloop
   endfacet
   facet normal -1.000000e+000 0.000000e+000 0.000000e+000
      outer loop
         vertex -2.500000e-003 -1.310243e-003 -4.234883e-003
         vertex -2.500000e-003 1.328069e-003 -4.161895e-003
         vertex -2.500000e-003 1.256219e-003 -4.427000e-003
      endloop
   endfacet
   facet normal -1.000000e+000 0.000000e+000 0.000000e+000
      outer loop
         vertex -2.500000e-003 -1.310243e-003 -4.234883e-003
         vertex -2.500000e-003 1.256219e-003 -4.427000e-003
         vertex -2.500000e-003 -1.233053e-003 -4.498694e-003
      endloop
   endfacet
   facet normal -1.000000e+000 0.000000e+000 0.000000e+000
      outer loop
         vertex -2.500000e-003 -1.233053e-003 -4.498694e-003
         vertex -2.500000e-003 1.256219e-003 -4.427000e-003
         vertex -2.500000e-003 -1.145664e-003 -4.727251e-003
      endloop
   endfacet
   facet normal -1.000000e+000 0.000000e+000 0.000000e+000
      outer loop
         vertex -2.500000e-003 -1.145664e-003 -4.727251e-003
         vertex -2.500000e-003 1.256219e-003 -4.427000e-003
         vertex -2.500000e-003 1.174091e-003 -4.659191e-003
      endloop
   endfacet
   facet normal -1.000000e+000 0.000000e+000 0.000000e+000
      outer loop
         vertex -2.500000e-003 -1.145664e-003 -4.727251e-003
         vertex -2.500000e-003 1.174091e-003 -4.659191e-003
         vertex -2.500000e-003 -1.056474e-003 -4.910375e-003
      endloop
   endfacet
   facet normal -1.000000e+000 0.000000e+000 0.000000e+000
      outer loop
         vertex -2.500000e-003 1.174091e-003 -4.659191e-003
         vertex -2.500000e-003 1.075768e-003 -4.874190e-003
         vertex -2.500000e-003 -1.056474e-003 -4.910375e-003
      endloop
   endfacet
   facet normal -1.000000e+000 0.000000e+000 0.000000e+000
      outer loop
         vertex -2.500000e-003 -1.056474e-003 -4.910375e-003
         vertex -2.500000e-003 1.075768e-003 -4.874190e-003
         vertex -2.500000e-003 9.747203e-004 -5.046454e-003
      endloop
   endfacet
   facet normal -1.000000e+000 0.000000e+000 0.000000e+000
      outer loop
         vertex -2.500000e-003 -1.056474e-003 -4.910375e-003
         vertex -2.500000e-003 9.747203e-004 -5.046454e-003
         vertex -2.500000e-003 -9.528293e-004 -5.078722e-003
      endloop
   endfacet
   facet normal -1.000000e+000 0.000000e+000 0.000000e+000
      outer loop
         vertex -2.500000e-003 -9.528293e-004 -5.078722e-003
         vertex -2.500000e-003 9.747203e-004 -5.046454e-003
         vertex -2.500000e-003 -8.419012e-004 -5.220006e-003
      endloop
   endfacet
   facet normal -1.000000e+000 0.000000e+000 0.000000e+000
      outer loop
         vertex -2.500000e-003 -1.504808e-003 -2.028699e-003
         vertex -2.500000e-003 -1.499098e-003 -1.781947e-003
         vertex -2.500000e-003 1.492700e-003 -1.614028e-003
      endloop
   endfacet
   facet normal -1.000000e+000 0.000000e+000 0.000000e+000
      outer loop
         vertex -2.500000e-003 1.492700e-003 -1.614028e-003
         vertex -2.500000e-003 -1.499098e-003 -1.781947e-003
         vertex -2.500000e-003 -1.468437e-003 -1.199380e-003
      endloop
   endfacet
   facet normal -1.000000e+000 0.000000e+000 0.000000e+000
      outer loop
         vertex -2.500000e-003 1.492700e-003 -1.614028e-003
         vertex -2.500000e-003 -1.468437e-003 -1.199380e-003
         vertex -2.500000e-003 1.454431e-003 -1.022494e-003
      endloop
   endfacet
   facet normal -1.000000e+000 0.000000e+000 0.000000e+000
      outer loop
         vertex -2.500000e-003 1.454431e-003 -1.022494e-003
         vertex -2.500000e-003 -1.468437e-003 -1.199380e-003
         vertex -2.500000e-003 -1.416449e-003 -6.399318e-004
      endloop
   endfacet
   facet normal -1.000000e+000 0.000000e+000 0.000000e+000
      outer loop
         vertex -2.500000e-003 1.454431e-003 -1.022494e-003
         vertex -2.500000e-003 -1.416449e-003 -6.399318e-004
         vertex -2.500000e-003 1.391536e-003 -4.348260e-004
      endloop
   endfacet
   facet normal -1.000000e+000 0.000000e+000 0.000000e+000
      outer loop
         vertex -2.500000e-003 1.391536e-003 -4.348260e-004
         vertex -2.500000e-003 -1.416449e-003 -6.399318e-004
         vertex -2.500000e-003 -1.347608e-003 -1.267708e-004
      endloop
   endfacet
   facet normal -1.000000e+000 0.000000e+000 0.000000e+000
      outer loop
         vertex -2.500000e-003 1.391536e-003 -4.348260e-004
         vertex -2.500000e-003 -1.347608e-003 -1.267708e-004
         vertex -2.500000e-003 1.316863e-003 5.962072e-005
      endloop
   endfacet
   facet normal -1.000000e+000 0.000000e+000 0.000000e+000
      outer loop
         vertex -2.500000e-003 1.316863e-003 5.962072e-005
         vertex -2.500000e-003 -1.347608e-003 -1.267708e-004
         vertex -2.500000e-003 -1.264755e-003 3.356189e-004
      endloop
   endfacet
   facet normal -1.000000e+000 0.000000e+000 0.000000e+000
      outer loop
         vertex -2.500000e-003 1.316863e-003 5.962072e-005
         vertex -2.500000e-003 -1.264755e-003 3.356189e-004
         vertex -2.500000e-003 1.230065e-003 4.973590e-004
      endloop
   endfacet
   facet normal -1.000000e+000 0.000000e+000 0.000000e+000
      outer loop
         vertex -2.500000e-003 1.230065e-003 4.973590e-004
         vertex -2.500000e-003 -1.264755e-003 3.356189e-004
         vertex -2.500000e-003 -1.170425e-003 7.435965e-004
      endloop
   endfacet
   facet normal -1.000000e+000 0.000000e+000 0.000000e+000
      outer loop
         vertex -2.500000e-003 1.230065e-003 4.973590e-004
         vertex -2.500000e-003 -1.170425e-003 7.435965e-004
         vertex -2.500000e-003 1.121404e-003 9.215324e-004
      endloop
   endfacet
   facet normal -1.000000e+000 0.000000e+000 0.000000e+000
      outer loop
         vertex -2.500000e-003 1.121404e-003 9.215324e-004
         vertex -2.500000e-003 -1.170425e-003 7.435965e-004
         vertex -2.500000e-003 -1.066780e-003 1.098499e-003
      endloop
   endfacet
   facet normal -1.000000e+000 0.000000e+000 0.000000e+000
      outer loop
         vertex -2.500000e-003 1.121404e-003 9.215324e-004
         vertex -2.500000e-003 -1.066780e-003 1.098499e-003
         vertex -2.500000e-003 1.008693e-003 1.266068e-003
      endloop
   endfacet
   facet normal -1.000000e+000 0.000000e+000 0.000000e+000
      outer loop
         vertex -2.500000e-003 1.008693e-003 1.266068e-003
         vertex -2.500000e-003 -1.066780e-003 1.098499e-003
         vertex -2.500000e-003 -9.516491e-004 1.413091e-003
      endloop
   endfacet
   facet normal -1.000000e+000 0.000000e+000 0.000000e+000
      outer loop
         vertex -2.500000e-003 1.008693e-003 1.266068e-003
         vertex -2.500000e-003 -9.516491e-004 1.413091e-003
         vertex -2.500000e-003 8.846665e-004 1.566674e-003
      endloop
   endfacet
   facet normal -1.000000e+000 0.000000e+000 0.000000e+000
      outer loop
         vertex -2.500000e-003 8.846665e-004 1.566674e-003
         vertex -2.500000e-003 -9.516491e-004 1.413091e-003
         vertex -2.500000e-003 -8.367556e-004 1.665385e-003
      endloop
   endfacet
   facet normal -1.000000e+000 0.000000e+000 0.000000e+000
      outer loop
         vertex -2.500000e-003 8.846665e-004 1.566674e-003
         vertex -2.500000e-003 -8.367556e-004 1.665385e-003
         vertex -2.500000e-003 7.690887e-004 1.790697e-003
      endloop
   endfacet
   facet normal -1.000000e+000 0.000000e+000 0.000000e+000
      outer loop
         vertex -2.500000e-003 7.690887e-004 1.790697e-003
         vertex -2.500000e-003 -8.367556e-004 1.665385e-003
         vertex -2.500000e-003 -7.200978e-004 1.872023e-003
      endloop
   endfacet
   facet normal -1.000000e+000 0.000000e+000 0.000000e+000
      outer loop
         vertex -2.500000e-003 -2.168404e-019 -5.607623e-003
         vertex -2.500000e-003 -1.184025e-004 -5.600221e-003
         vertex -2.500000e-003 7.484197e-004 -5.314989e-003
      endloop
   endfacet
   facet normal -1.000000e+000 0.000000e+000 0.000000e+000
      outer loop
         vertex -2.500000e-003 7.484197e-004 -5.314989e-003
         vertex -2.500000e-003 -1.184025e-004 -5.600221e-003
         vertex -2.500000e-003 8.655495e-004 -5.192724e-003
      endloop
   endfacet
   facet normal -1.000000e+000 0.000000e+000 0.000000e+000
      outer loop
         vertex -2.500000e-003 4.816768e-004 -5.497368e-003
         vertex -2.500000e-003 3.347386e-004 -5.555492e-003
         vertex -2.500000e-003 1.747882e-004 -5.592697e-003
      endloop
   endfacet
   facet normal -1.000000e+000 0.000000e+000 0.000000e+000
      outer loop
         vertex -2.500000e-003 -4.422329e-004 -5.515490e-003
         vertex -2.500000e-003 -5.900532e-004 -5.436834e-003
         vertex -2.500000e-003 9.747203e-004 -5.046454e-003
      endloop
   endfacet
   facet normal -1.000000e+000 0.000000e+000 0.000000e+000
      outer loop
         vertex -2.500000e-003 9.747203e-004 -5.046454e-003
         vertex -2.500000e-003 -5.900532e-004 -5.436834e-003
         vertex -2.500000e-003 -7.239032e-004 -5.336824e-003
      endloop
   endfacet
   facet normal -1.000000e+000 0.000000e+000 0.000000e+000
      outer loop
         vertex -2.500000e-003 9.747203e-004 -5.046454e-003
         vertex -2.500000e-003 -7.239032e-004 -5.336824e-003
         vertex -2.500000e-003 -8.419012e-004 -5.220006e-003
      endloop
   endfacet
   facet normal -1.000000e+000 0.000000e+000 0.000000e+000
      outer loop
         vertex -2.500000e-003 4.140814e-004 2.231295e-003
         vertex -2.500000e-003 5.283722e-004 2.124447e-003
         vertex -2.500000e-003 -7.200978e-004 1.872023e-003
      endloop
   endfacet
   facet normal -1.000000e+000 0.000000e+000 0.000000e+000
      outer loop
         vertex -2.500000e-003 -7.200978e-004 1.872023e-003
         vertex -2.500000e-003 5.283722e-004 2.124447e-003
         vertex -2.500000e-003 6.525041e-004 1.972398e-003
      endloop
   endfacet
   facet normal -1.000000e+000 0.000000e+000 0.000000e+000
      outer loop
         vertex -2.500000e-003 -7.200978e-004 1.872023e-003
         vertex -2.500000e-003 6.525041e-004 1.972398e-003
         vertex -2.500000e-003 7.690887e-004 1.790697e-003
      endloop
   endfacet
   facet normal -1.000000e+000 0.000000e+000 0.000000e+000
      outer loop
         vertex -2.500000e-003 -2.168404e-019 -5.607623e-003
         vertex -2.500000e-003 7.484197e-004 -5.314989e-003
         vertex -2.500000e-003 1.747882e-004 -5.592697e-003
      endloop
   endfacet
   facet normal -1.000000e+000 0.000000e+000 0.000000e+000
      outer loop
         vertex -2.500000e-003 1.747882e-004 -5.592697e-003
         vertex -2.500000e-003 7.484197e-004 -5.314989e-003
         vertex -2.500000e-003 6.174995e-004 -5.418772e-003
      endloop
   endfacet
   facet normal -1.000000e+000 0.000000e+000 0.000000e+000
      outer loop
         vertex -2.500000e-003 1.747882e-004 -5.592697e-003
         vertex -2.500000e-003 6.174995e-004 -5.418772e-003
         vertex -2.500000e-003 4.816768e-004 -5.497368e-003
      endloop
   endfacet
   facet normal -1.000000e+000 0.000000e+000 0.000000e+000
      outer loop
         vertex -2.500000e-003 8.655495e-004 -5.192724e-003
         vertex -2.500000e-003 -1.184025e-004 -5.600221e-003
         vertex -2.500000e-003 9.747203e-004 -5.046454e-003
      endloop
   endfacet
   facet normal -1.000000e+000 0.000000e+000 0.000000e+000
      outer loop
         vertex -2.500000e-003 9.747203e-004 -5.046454e-003
         vertex -2.500000e-003 -1.184025e-004 -5.600221e-003
         vertex -2.500000e-003 -2.855454e-004 -5.569596e-003
      endloop
   endfacet
   facet normal -1.000000e+000 0.000000e+000 0.000000e+000
      outer loop
         vertex -2.500000e-003 9.747203e-004 -5.046454e-003
         vertex -2.500000e-003 -2.855454e-004 -5.569596e-003
         vertex -2.500000e-003 -4.422329e-004 -5.515490e-003
      endloop
   endfacet
   facet normal -1.000000e+000 0.000000e+000 0.000000e+000
      outer loop
         vertex -2.500000e-003 -6.034950e-004 2.037198e-003
         vertex -2.500000e-003 -4.821476e-004 2.171285e-003
         vertex -2.500000e-003 -4.336809e-019 2.392377e-003
      endloop
   endfacet
   facet normal -1.000000e+000 0.000000e+000 0.000000e+000
      outer loop
         vertex -2.500000e-003 -4.336809e-019 2.392377e-003
         vertex -2.500000e-003 -4.821476e-004 2.171285e-003
         vertex -2.500000e-003 -3.741907e-004 2.261710e-003
      endloop
   endfacet
   facet normal -1.000000e+000 0.000000e+000 0.000000e+000
      outer loop
         vertex -2.500000e-003 1.183101e-004 2.379762e-003
         vertex -2.500000e-003 2.086782e-004 2.352702e-003
         vertex -2.500000e-003 -7.200978e-004 1.872023e-003
      endloop
   endfacet
   facet normal -1.000000e+000 0.000000e+000 0.000000e+000
      outer loop
         vertex -2.500000e-003 -7.200978e-004 1.872023e-003
         vertex -2.500000e-003 2.086782e-004 2.352702e-003
         vertex -2.500000e-003 3.053842e-004 2.306269e-003
      endloop
   endfacet
   facet normal -1.000000e+000 0.000000e+000 0.000000e+000
      outer loop
         vertex -2.500000e-003 -7.200978e-004 1.872023e-003
         vertex -2.500000e-003 3.053842e-004 2.306269e-003
         vertex -2.500000e-003 4.140814e-004 2.231295e-003
      endloop
   endfacet
   facet normal -1.000000e+000 0.000000e+000 0.000000e+000
      outer loop
         vertex -2.500000e-003 -3.741907e-004 2.261710e-003
         vertex -2.500000e-003 -2.759354e-004 2.322374e-003
         vertex -2.500000e-003 -4.336809e-019 2.392377e-003
      endloop
   endfacet
   facet normal -1.000000e+000 0.000000e+000 0.000000e+000
      outer loop
         vertex -2.500000e-003 -4.336809e-019 2.392377e-003
         vertex -2.500000e-003 -2.759354e-004 2.322374e-003
         vertex -2.500000e-003 -1.832667e-004 2.361874e-003
      endloop
   endfacet
   facet normal -1.000000e+000 0.000000e+000 0.000000e+000
      outer loop
         vertex -2.500000e-003 -4.336809e-019 2.392377e-003
         vertex -2.500000e-003 -1.832667e-004 2.361874e-003
         vertex -2.500000e-003 -9.221931e-005 2.384734e-003
      endloop
   endfacet
   facet normal -1.000000e+000 0.000000e+000 0.000000e+000
      outer loop
         vertex -2.500000e-003 -6.034950e-004 2.037198e-003
         vertex -2.500000e-003 -4.336809e-019 2.392377e-003
         vertex -2.500000e-003 -7.200978e-004 1.872023e-003
      endloop
   endfacet
   facet normal -1.000000e+000 0.000000e+000 0.000000e+000
      outer loop
         vertex -2.500000e-003 -7.200978e-004 1.872023e-003
         vertex -2.500000e-003 -4.336809e-019 2.392377e-003
         vertex -2.500000e-003 3.044724e-005 2.391550e-003
      endloop
   endfacet
   facet normal -1.000000e+000 0.000000e+000 0.000000e+000
      outer loop
         vertex -2.500000e-003 -7.200978e-004 1.872023e-003
         vertex -2.500000e-003 3.044724e-005 2.391550e-003
         vertex -2.500000e-003 1.183101e-004 2.379762e-003
      endloop
   endfacet
endsolid